<?xml version="1.0" encoding="UTF-8"?>
<svg xmlns="http://www.w3.org/2000/svg" viewBox="0 0 512 512" width="512" height="512"><g id="outline"><path d="M75.1,185.668l26.114,18.5a8,8,0,0,0,11.148-1.9A176.441,176.441,0,0,1,256,128a174.083,174.083,0,0,1,79.947,19.164A177.666,177.666,0,0,1,396.809,198.4a8,8,0,0,0,11.2,1.595l25.6-19.2a8,8,0,0,0,1.6-11.2A226.059,226.059,0,0,0,357.764,104.4,221.6,221.6,0,0,0,256,80,223.735,223.735,0,0,0,73.2,174.51a8,8,0,0,0,1.9,11.158Zm83.883-65.706A208.423,208.423,0,0,1,256,96a205.749,205.749,0,0,1,94.484,22.649,210.029,210.029,0,0,1,66.993,54.244L404.666,182.5a193.831,193.831,0,0,0-61.439-49.585A189.934,189.934,0,0,0,256,112a192.483,192.483,0,0,0-151.922,74.585L91.012,177.33A209.876,209.876,0,0,1,158.986,119.962Z"/><path d="M345.607,236.8a8,8,0,0,0,11.2,1.594l25.6-19.2a8,8,0,0,0,1.6-11.205,161.462,161.462,0,0,0-55.311-46.561A158.283,158.283,0,0,0,256,144a160.388,160.388,0,0,0-130.568,67.505,8,8,0,0,0,1.9,11.159l26.114,18.5a8,8,0,0,0,11.149-1.9A112.281,112.281,0,0,1,256,192,111.157,111.157,0,0,1,345.607,236.8ZM156.376,223.629l-13.08-9.265A144.373,144.373,0,0,1,256,160a142.43,142.43,0,0,1,65.411,15.679,145.409,145.409,0,0,1,44.809,35.656l-12.814,9.611A126.884,126.884,0,0,0,256,176,128.313,128.313,0,0,0,156.376,223.629Z"/><path d="M294.4,275.205a8,8,0,0,0,11.2,1.6l25.6-19.2a8,8,0,0,0,1.6-11.2A95.265,95.265,0,0,0,256,208a96.233,96.233,0,0,0-78.34,40.5,8,8,0,0,0,1.9,11.158l26.127,18.507a8,8,0,0,0,11.149-1.9,47.986,47.986,0,0,1,77.567-1.062Zm-85.581-14.426-13.152-9.316A80.207,80.207,0,0,1,256,224a79.282,79.282,0,0,1,58.887,25.835l-12.88,9.66A63.406,63.406,0,0,0,256,240,64.128,64.128,0,0,0,208.823,260.779Z"/><path d="M479.675,231.764A22.519,22.519,0,0,0,439.7,221.742h0L338.391,352H171.912L70.6,221.741a22.52,22.52,0,0,0-35.792,27.338L112,352a32.036,32.036,0,0,0-32,32v16a32.036,32.036,0,0,0,32,32H400a32.036,32.036,0,0,0,32-32V384a32.036,32.036,0,0,0-32-32h-1.7L475.5,249.079A22.612,22.612,0,0,0,479.675,231.764ZM375.468,330.391l12.695,8.463L378.3,352H358.661ZM47.609,239.479a6.518,6.518,0,0,1,1.6-9.336,6.547,6.547,0,0,1,8.764,1.421l67.015,86.164-12.461,8.307ZM136,416H112a16.019,16.019,0,0,1-16-16V384a16.019,16.019,0,0,1,16-16h24Zm-4-64-9.859-13.146,12.7-8.463L151.643,352Zm228,64H152V368H360Zm40-48a16.019,16.019,0,0,1,16,16v16a16.019,16.019,0,0,1-16,16H376V368Zm62.694-128.521-64.916,86.556-12.461-8.307,67.016-86.164h0a6.545,6.545,0,0,1,8.762-1.421,6.519,6.519,0,0,1,1.6,9.336Z"/><circle cx="256" cy="392" r="8"/><circle cx="224" cy="392" r="8"/><circle cx="192" cy="392" r="8"/><circle cx="288" cy="392" r="8"/><circle cx="320" cy="392" r="8"/><path d="M224,304a32,32,0,1,0,32-32A32.036,32.036,0,0,0,224,304Zm48,0a16,16,0,1,1-16-16A16.019,16.019,0,0,1,272,304Z"/></g></svg>
